<?xml version="1.0" encoding="utf-8"?>
<!-- Generator: Adobe Illustrator 24.3.0, SVG Export Plug-In . SVG Version: 6.00 Build 0)  -->
<svg version="1.1" id="Layer_1" xmlns="http://www.w3.org/2000/svg" xmlns:xlink="http://www.w3.org/1999/xlink" x="0px" y="0px"
	 viewBox="0 0 54 54" style="enable-background:new 0 0 54 54;" xml:space="preserve">
<style type="text/css">
	.st0{display:none;}
	.st1{display:inline;fill:#FFFFFF;}
	.st2{fill:#FFFFFF;}
</style>
<g id="j" class="st0">
	<path class="st1" d="M27.86,54c-5,0-9.62-0.65-13.88-1.95c-4.26-1.3-7.65-3.32-10.18-6.04C1.27,43.28,0,39.81,0,35.58
		c0-2.9,0.96-5.11,2.89-6.63c1.92-1.52,4.54-2.28,7.85-2.28c3.38,0,5.99,0.65,7.85,1.95c1.86,1.3,2.79,3.25,2.79,5.86
		c0,2.36,0.59,3.97,1.77,4.83c1.18,0.86,2.62,1.29,4.31,1.29c1.69,0,3.07-0.43,4.15-1.29c1.08-0.86,1.62-2.47,1.62-4.83v-5.08
		c0-2.5,0.46-4.57,1.37-6.19c0.91-1.62,1.98-2.88,3.19-3.79c1.22-0.91,2.3-1.51,3.24-1.8l-0.51-1.4H15.1c-3.24,0-5.83-0.7-7.75-2.1
		c-1.92-1.4-2.96-3.35-3.09-5.86C4.19,5.8,5.17,3.81,7.19,2.28C9.22,0.76,11.85,0,15.1,0h29.18c3.17,0,5.59,0.77,7.24,2.32
		c1.65,1.55,2.48,3.55,2.48,6v27.26c0,4.22-1.13,7.7-3.39,10.42c-2.26,2.73-5.37,4.74-9.32,6.04C37.33,53.35,32.86,54,27.86,54z"/>
</g>
<g id="e" class="st0">
	<path class="st1" d="M0,27.2c0-5.36,1.17-10.09,3.51-14.16s5.68-7.27,10.02-9.58C17.87,1.16,23.05,0,29.06,0
		c4.68,0,8.89,0.78,12.64,2.34c3.75,1.56,6.7,3.65,8.85,6.27c2.15,2.62,3.23,5.49,3.23,8.61c0,3.26-1.04,5.57-3.12,6.93
		c-2.08,1.36-5.16,2.04-9.24,2.04H18.04c0,1.77,0.76,3.23,2.28,4.38c1.52,1.16,4.1,1.73,7.74,1.73c1.85,0,3.58-0.17,5.18-0.51
		c1.6-0.34,3.23-0.66,4.9-0.97c1.67-0.31,3.54-0.46,5.62-0.46c2.97,0,5.42,0.97,7.35,2.9c1.93,1.94,2.89,4.6,2.89,8
		c0,4.01-2.25,7.13-6.74,9.37C42.77,52.88,36.89,54,29.62,54c-5.12,0-9.93-0.92-14.42-2.75c-4.49-1.83-8.15-4.74-10.97-8.71
		C1.41,38.56,0,33.45,0,27.2z M36.07,22.82c1.11,0,1.48-0.47,1.11-1.43c-0.3-0.95-1.19-1.94-2.67-2.95
		c-1.49-1.02-3.64-1.53-6.46-1.53c-3.27,0-5.7,0.65-7.29,1.94c-1.6,1.29-2.39,2.62-2.39,3.97H36.07z"/>
</g>
<g id="s" class="st0">
	<path class="st1" d="M27.93,54c-5.02,0-9.65-0.44-13.91-1.33c-4.25-0.89-7.66-2.3-10.2-4.24C1.27,46.5,0,43.92,0,40.7
		c0-2.82,0.94-5.16,2.84-7c1.89-1.84,4.4-2.76,7.53-2.76c1.96,0,3.94,0.28,5.95,0.84c2,0.56,4.13,1.1,6.38,1.63
		c2.25,0.53,4.69,0.79,7.31,0.79c2.33,0,3.89-0.11,4.69-0.34c0.8-0.23,1.2-0.67,1.2-1.33c0-0.79-0.49-1.31-1.47-1.58
		c-0.98-0.26-2.64-0.59-4.96-0.99l-7.85-1.38c-3.27-0.59-6.46-1.36-9.55-2.32c-3.09-0.95-5.64-2.38-7.64-4.29c-2-1.9-3-4.5-3-7.78
		c0-4.47,2.2-7.95,6.6-10.45C12.42,1.25,18.8,0,27.16,0c4.8,0,9.11,0.43,12.93,1.28c3.82,0.85,6.85,2.12,9.11,3.79
		c2.25,1.68,3.38,3.76,3.38,6.26c0.07,2.69-0.73,4.86-2.4,6.5c-1.67,1.64-3.78,2.46-6.33,2.46c-1.82,0-3.65-0.21-5.51-0.64
		c-1.85-0.43-3.86-0.89-6-1.38c-2.15-0.49-4.6-0.77-7.36-0.84c-1.96-0.13-3.56-0.03-4.8,0.3c-1.24,0.33-1.85,0.85-1.85,1.58
		c0,0.79,0.73,1.33,2.18,1.63c1.45,0.3,3.64,0.67,6.55,1.13l7.75,1.28c4.73,0.72,8.49,1.63,11.29,2.71c2.8,1.08,4.82,2.58,6.05,4.48
		c1.24,1.91,1.85,4.53,1.85,7.88c0,3.48-1.11,6.39-3.33,8.72c-2.22,2.33-5.29,4.06-9.22,5.17C37.53,53.44,33.02,54,27.93,54z"/>
</g>
<g class="st0">
	<path class="st1" d="M0,27.2c0-5.36,1.17-10.09,3.51-14.16s5.68-7.27,10.02-9.58C17.87,1.16,23.05,0,29.06,0
		c4.68,0,8.89,0.78,12.64,2.34c3.75,1.56,6.7,3.65,8.85,6.27c2.15,2.62,3.23,5.49,3.23,8.61c0,3.26-1.04,5.57-3.12,6.93
		c-2.08,1.36-5.16,2.04-9.24,2.04H18.04c0,1.77,0.76,3.23,2.28,4.38c1.52,1.16,4.1,1.73,7.74,1.73c1.85,0,3.58-0.17,5.18-0.51
		c1.6-0.34,3.23-0.66,4.9-0.97c1.67-0.31,3.54-0.46,5.62-0.46c2.97,0,5.42,0.97,7.35,2.9c1.93,1.94,2.89,4.6,2.89,8
		c0,4.01-2.25,7.13-6.74,9.37C42.77,52.88,36.89,54,29.62,54c-5.12,0-9.93-0.92-14.42-2.75c-4.49-1.83-8.15-4.74-10.97-8.71
		C1.41,38.56,0,33.45,0,27.2z M36.07,22.82c1.11,0,1.48-0.47,1.11-1.43c-0.3-0.95-1.19-1.94-2.67-2.95
		c-1.49-1.02-3.64-1.53-6.46-1.53c-3.27,0-5.7,0.65-7.29,1.94c-1.6,1.29-2.39,2.62-2.39,3.97H36.07z"/>
</g>
<g id="o" class="st0">
	<path class="st1" d="M26.95,54c-8.21,0-14.76-2.36-19.63-7.09C2.44,42.18,0,35.49,0,26.85c0-5.31,1.12-9.97,3.37-13.98
		c2.25-4.01,5.38-7.16,9.42-9.44C16.82,1.14,21.54,0,26.95,0C32.98,0,38,1.14,42,3.42c4,2.28,7,5.43,9,9.44c2,4.02,3,8.68,3,13.98
		c0,8.64-2.23,15.33-6.68,20.06C42.86,51.64,36.07,54,26.95,54z M12.53,25.11c0,2.11,1.09,3.59,3.26,4.44
		c2.17,0.85,5.89,1.28,11.16,1.28c5.26,0,8.98-0.42,11.16-1.28c2.17-0.85,3.26-2.33,3.26-4.44c0-2.04-1.09-3.47-3.26-4.29
		c-2.18-0.82-5.89-1.23-11.16-1.23c-5.26,0-8.98,0.41-11.16,1.23C13.61,21.64,12.53,23.07,12.53,25.11z"/>
</g>
<g id="n">
	<path class="st2" d="M10.58,54c-3.2,0-5.76-0.91-7.69-2.74C0.96,49.44,0,47.19,0,44.5V10.33c0-2.89,0.91-5.33,2.73-7.33
		C4.54,1,7.16,0,10.58,0c3.34,0,5.89,1,7.64,2.99c1.75,2,2.62,4.51,2.62,7.54v5.16h1.96c0-3.92,0.75-7.02,2.24-9.29
		c1.49-2.27,3.4-3.91,5.73-4.9c2.33-1,4.65-1.5,6.98-1.5c5.6,0,9.71,1.91,12.33,5.73C52.69,9.55,54,14.97,54,21.99V44.5
		c0,2.68-0.95,4.94-2.84,6.76C49.27,53.09,46.73,54,43.53,54c-3.27,0-5.87-0.91-7.8-2.74c-1.93-1.82-2.89-4.08-2.89-6.76V26.23
		c0-2.48-0.49-4.4-1.47-5.78c-0.98-1.38-2.42-2.06-4.31-2.06c-2.18,0-3.76,0.76-4.75,2.27c-0.98,1.52-1.47,3.44-1.47,5.78V44.5
		c0,2.68-0.91,4.94-2.73,6.76C16.29,53.09,13.78,54,10.58,54z"/>
</g>
</svg>
